# xmcd
# 
# Track frame offsets:
#     150
#     22120
#     41727
#     68357
#     102495
#     128951
#     158051
#     185421
#     206092
#     229911
# 
# Disc length: 3411
# 
# Revision: 2
# Processed by: cddbd v1.5.2PL0 Copyright (c) Steve Scherf et al.
# Submitted via: fre:ac v1.0.27
# 
DISCID=890d510a
DTITLE=Jessy Martens and Jan Fischer's Blues Support - Live On Stage
DYEAR=2009
DGENRE=Blues
TTITLE0=Mama He Treats Your Daughter Mean
TTITLE1=I Believe I'm In Love With You
TTITLE2=What Kind Of Man Is This
TTITLE3=Stormy Monday
TTITLE4=Mercy
TTITLE5=I'm No Sophisticated Mama
TTITLE6=You've Got Me Running
TTITLE7=Hallelujah I Just Love Him (Her) So
TTITLE8=Going Up The Country
TTITLE9=Messing With The Kid
EXTD=YEAR: 2009
EXTT0=
EXTT1=
EXTT2=
EXTT3=
EXTT4=
EXTT5=
EXTT6=
EXTT7=
EXTT8=
EXTT9=
PLAYORDER=
